<mxfile modified="2024-05-23T13:04:54.305Z" host="app.diagrams.net" agent="Mozilla/5.0 (Windows NT 10.0; Win64; x64) AppleWebKit/537.36 (KHTML, like Gecko) Chrome/125.0.0.0 Safari/537.36" etag="9WCGjefboASyyFZSjd7M" version="24.4.6" type="device">
  <diagram id="Ht1M8jgEwFfnCIfOTk4-" name="Page-1">
    <mxGraphModel dx="1687" dy="1705" grid="1" gridSize="10" guides="1" tooltips="1" connect="1" arrows="1" fold="1" page="1" pageScale="1" pageWidth="1169" pageHeight="827" math="0" shadow="0">
      <root>
        <mxCell id="0" />
        <mxCell id="1" parent="0" />
        <mxCell id="wB2CTsfBuIStc93l_LuM-56" style="edgeStyle=orthogonalEdgeStyle;rounded=0;orthogonalLoop=1;jettySize=auto;html=1;entryX=0.5;entryY=0;entryDx=0;entryDy=0;" edge="1" parent="1" source="wB2CTsfBuIStc93l_LuM-50" target="wB2CTsfBuIStc93l_LuM-49">
          <mxGeometry relative="1" as="geometry" />
        </mxCell>
        <mxCell id="wB2CTsfBuIStc93l_LuM-23" value="CloudHub 2.0 (Production environment)" style="points=[[0,0],[0.25,0],[0.5,0],[0.75,0],[1,0],[1,0.25],[1,0.5],[1,0.75],[1,1],[0.75,1],[0.5,1],[0.25,1],[0,1],[0,0.75],[0,0.5],[0,0.25]];outlineConnect=0;gradientColor=none;html=1;whiteSpace=wrap;fontSize=12;fontStyle=0;container=1;pointerEvents=0;collapsible=0;recursiveResize=0;shape=mxgraph.aws4.group;grIcon=mxgraph.aws4.group_aws_cloud_alt;strokeColor=#232F3E;fillColor=none;verticalAlign=top;align=left;spacingLeft=30;fontColor=#232F3E;dashed=0;" vertex="1" parent="1">
          <mxGeometry x="180" y="100" width="990" height="660" as="geometry" />
        </mxCell>
        <mxCell id="wB2CTsfBuIStc93l_LuM-24" value="Region (EU (London) | gbr-e1)" style="points=[[0,0],[0.25,0],[0.5,0],[0.75,0],[1,0],[1,0.25],[1,0.5],[1,0.75],[1,1],[0.75,1],[0.5,1],[0.25,1],[0,1],[0,0.75],[0,0.5],[0,0.25]];outlineConnect=0;gradientColor=none;html=1;whiteSpace=wrap;fontSize=12;fontStyle=0;container=1;pointerEvents=0;collapsible=0;recursiveResize=0;shape=mxgraph.aws4.group;grIcon=mxgraph.aws4.group_region;strokeColor=#00A4A6;fillColor=none;verticalAlign=top;align=left;spacingLeft=30;fontColor=#147EBA;dashed=1;" vertex="1" parent="wB2CTsfBuIStc93l_LuM-23">
          <mxGeometry x="30" y="30" width="930" height="600" as="geometry" />
        </mxCell>
        <mxCell id="wB2CTsfBuIStc93l_LuM-48" value="System layer" style="fillColor=#f8cecc;strokeColor=#b85450;dashed=0;verticalAlign=middle;fontStyle=0;whiteSpace=wrap;html=1;labelPosition=center;verticalLabelPosition=middle;align=center;" vertex="1" parent="wB2CTsfBuIStc93l_LuM-24">
          <mxGeometry x="110" y="433.75" width="710" height="100" as="geometry" />
        </mxCell>
        <mxCell id="wB2CTsfBuIStc93l_LuM-62" style="edgeStyle=orthogonalEdgeStyle;rounded=0;orthogonalLoop=1;jettySize=auto;html=1;entryX=0.5;entryY=0;entryDx=0;entryDy=0;startArrow=classic;startFill=1;" edge="1" parent="wB2CTsfBuIStc93l_LuM-24" source="wB2CTsfBuIStc93l_LuM-47" target="wB2CTsfBuIStc93l_LuM-48">
          <mxGeometry relative="1" as="geometry" />
        </mxCell>
        <mxCell id="wB2CTsfBuIStc93l_LuM-68" value="" style="edgeStyle=orthogonalEdgeStyle;rounded=0;orthogonalLoop=1;jettySize=auto;html=1;startArrow=classic;startFill=1;" edge="1" parent="wB2CTsfBuIStc93l_LuM-24" source="wB2CTsfBuIStc93l_LuM-47" target="wB2CTsfBuIStc93l_LuM-46">
          <mxGeometry relative="1" as="geometry" />
        </mxCell>
        <mxCell id="wB2CTsfBuIStc93l_LuM-47" value="Process layer" style="fillColor=#fff2cc;strokeColor=#d6b656;dashed=0;verticalAlign=middle;fontStyle=0;whiteSpace=wrap;html=1;labelPosition=center;verticalLabelPosition=middle;align=center;" vertex="1" parent="wB2CTsfBuIStc93l_LuM-24">
          <mxGeometry x="110" y="303.75" width="710" height="100" as="geometry" />
        </mxCell>
        <mxCell id="wB2CTsfBuIStc93l_LuM-61" style="edgeStyle=orthogonalEdgeStyle;rounded=0;orthogonalLoop=1;jettySize=auto;html=1;entryX=0.5;entryY=0;entryDx=0;entryDy=0;" edge="1" parent="wB2CTsfBuIStc93l_LuM-24" source="wB2CTsfBuIStc93l_LuM-46" target="wB2CTsfBuIStc93l_LuM-47">
          <mxGeometry relative="1" as="geometry" />
        </mxCell>
        <mxCell id="wB2CTsfBuIStc93l_LuM-46" value="Experience layer" style="fillColor=#d5e8d4;strokeColor=#82b366;dashed=0;verticalAlign=middle;fontStyle=0;whiteSpace=wrap;html=1;labelPosition=center;verticalLabelPosition=middle;align=center;" vertex="1" parent="wB2CTsfBuIStc93l_LuM-24">
          <mxGeometry x="110" y="173.75" width="710" height="100" as="geometry" />
        </mxCell>
        <mxCell id="wB2CTsfBuIStc93l_LuM-41" value="Availability Zone 1" style="fillColor=none;strokeColor=#0000FF;dashed=1;verticalAlign=top;fontStyle=0;fontColor=#147EBA;whiteSpace=wrap;html=1;" vertex="1" parent="wB2CTsfBuIStc93l_LuM-24">
          <mxGeometry x="170" y="30" width="230" height="540" as="geometry" />
        </mxCell>
        <mxCell id="wB2CTsfBuIStc93l_LuM-26" value="Replica nº1 - 0.1 vCore&lt;div&gt;Experience API&lt;/div&gt;" style="sketch=0;outlineConnect=0;fontColor=#232F3E;gradientColor=none;fillColor=#ED7100;strokeColor=none;dashed=0;verticalLabelPosition=bottom;verticalAlign=top;align=center;html=1;fontSize=12;fontStyle=0;aspect=fixed;pointerEvents=1;shape=mxgraph.aws4.container_3;" vertex="1" parent="wB2CTsfBuIStc93l_LuM-24">
          <mxGeometry x="244.43" y="181.25" width="77.42" height="50" as="geometry" />
        </mxCell>
        <mxCell id="wB2CTsfBuIStc93l_LuM-27" value="Replica nº 2 - 0.1 vCore&lt;div&gt;Experience API&lt;/div&gt;" style="sketch=0;outlineConnect=0;fontColor=#232F3E;gradientColor=none;fillColor=#ED7100;strokeColor=none;dashed=0;verticalLabelPosition=bottom;verticalAlign=top;align=center;html=1;fontSize=12;fontStyle=0;aspect=fixed;pointerEvents=1;shape=mxgraph.aws4.container_3;" vertex="1" parent="wB2CTsfBuIStc93l_LuM-24">
          <mxGeometry x="608.14" y="181.25" width="77.42" height="50" as="geometry" />
        </mxCell>
        <mxCell id="wB2CTsfBuIStc93l_LuM-29" value="Replica nº1 - 0.1 vCore&lt;div&gt;Process API&lt;/div&gt;" style="sketch=0;outlineConnect=0;fontColor=#232F3E;gradientColor=none;fillColor=#ED7100;strokeColor=none;dashed=0;verticalLabelPosition=bottom;verticalAlign=top;align=center;html=1;fontSize=12;fontStyle=0;aspect=fixed;pointerEvents=1;shape=mxgraph.aws4.container_3;" vertex="1" parent="wB2CTsfBuIStc93l_LuM-24">
          <mxGeometry x="244.43" y="311.25" width="77.42" height="50" as="geometry" />
        </mxCell>
        <mxCell id="wB2CTsfBuIStc93l_LuM-30" value="Replica nº 2 - 0.1 vCore&lt;br&gt;&lt;div&gt;&lt;span style=&quot;background-color: initial;&quot;&gt;Process&lt;/span&gt;&lt;span style=&quot;background-color: initial;&quot;&gt;&amp;nbsp;&lt;/span&gt;API&lt;/div&gt;" style="sketch=0;outlineConnect=0;fontColor=#232F3E;gradientColor=none;fillColor=#ED7100;strokeColor=none;dashed=0;verticalLabelPosition=bottom;verticalAlign=top;align=center;html=1;fontSize=12;fontStyle=0;aspect=fixed;pointerEvents=1;shape=mxgraph.aws4.container_3;" vertex="1" parent="wB2CTsfBuIStc93l_LuM-24">
          <mxGeometry x="608.14" y="311.25" width="77.42" height="50" as="geometry" />
        </mxCell>
        <mxCell id="wB2CTsfBuIStc93l_LuM-32" value="Replica nº1 - 0.1 vCore&lt;br&gt;&lt;div&gt;System API&lt;/div&gt;" style="sketch=0;outlineConnect=0;fontColor=#232F3E;gradientColor=none;fillColor=#ED7100;strokeColor=none;dashed=0;verticalLabelPosition=bottom;verticalAlign=top;align=center;html=1;fontSize=12;fontStyle=0;aspect=fixed;pointerEvents=1;shape=mxgraph.aws4.container_3;" vertex="1" parent="wB2CTsfBuIStc93l_LuM-24">
          <mxGeometry x="244.43" y="441.25" width="77.42" height="50" as="geometry" />
        </mxCell>
        <mxCell id="wB2CTsfBuIStc93l_LuM-33" value="Replica nº 2 - 0.1 vCore&lt;br&gt;&lt;div&gt;&lt;span style=&quot;background-color: initial;&quot;&gt;System&lt;/span&gt;&lt;span style=&quot;background-color: initial;&quot;&gt;&amp;nbsp;&lt;/span&gt;API&lt;/div&gt;" style="sketch=0;outlineConnect=0;fontColor=#232F3E;gradientColor=none;fillColor=#ED7100;strokeColor=none;dashed=0;verticalLabelPosition=bottom;verticalAlign=top;align=center;html=1;fontSize=12;fontStyle=0;aspect=fixed;pointerEvents=1;shape=mxgraph.aws4.container_3;" vertex="1" parent="wB2CTsfBuIStc93l_LuM-24">
          <mxGeometry x="608.14" y="441.25" width="77.42" height="50" as="geometry" />
        </mxCell>
        <mxCell id="wB2CTsfBuIStc93l_LuM-52" value="Private Space" style="points=[[0,0],[0.25,0],[0.5,0],[0.75,0],[1,0],[1,0.25],[1,0.5],[1,0.75],[1,1],[0.75,1],[0.5,1],[0.25,1],[0,1],[0,0.75],[0,0.5],[0,0.25]];outlineConnect=0;gradientColor=none;html=1;whiteSpace=wrap;fontSize=12;fontStyle=0;container=1;pointerEvents=0;collapsible=0;recursiveResize=0;shape=mxgraph.aws4.group;grIcon=mxgraph.aws4.group_vpc2;strokeColor=#8C4FFF;fillColor=none;verticalAlign=top;align=left;spacingLeft=30;fontColor=#8C4FFF;dashed=0;labelBackgroundColor=none;" vertex="1" parent="wB2CTsfBuIStc93l_LuM-24">
          <mxGeometry x="80" y="60" width="770" height="490" as="geometry" />
        </mxCell>
        <mxCell id="wB2CTsfBuIStc93l_LuM-58" value="Ingress (CH 2 DLB)" style="sketch=0;outlineConnect=0;fontColor=#232F3E;gradientColor=none;fillColor=#8C4FFF;strokeColor=none;dashed=0;verticalLabelPosition=bottom;verticalAlign=top;align=center;html=1;fontSize=12;fontStyle=0;aspect=fixed;pointerEvents=1;shape=mxgraph.aws4.application_load_balancer;" vertex="1" parent="wB2CTsfBuIStc93l_LuM-52">
          <mxGeometry x="355" y="20" width="60" height="60" as="geometry" />
        </mxCell>
        <mxCell id="wB2CTsfBuIStc93l_LuM-67" value="Certificado" style="sketch=0;outlineConnect=0;fontColor=#232F3E;gradientColor=none;fillColor=#7AA116;strokeColor=none;dashed=0;verticalLabelPosition=middle;verticalAlign=middle;align=right;html=1;fontSize=12;fontStyle=0;aspect=fixed;pointerEvents=1;shape=mxgraph.aws4.certificate_manager;labelPosition=left;" vertex="1" parent="wB2CTsfBuIStc93l_LuM-52">
          <mxGeometry x="332.31" y="10" width="22.69" height="30" as="geometry" />
        </mxCell>
        <mxCell id="wB2CTsfBuIStc93l_LuM-70" value="DNS" style="fillColor=#28A8E0;verticalLabelPosition=middle;sketch=0;html=1;strokeColor=#ffffff;verticalAlign=middle;align=left;points=[[0.145,0.145,0],[0.5,0,0],[0.855,0.145,0],[1,0.5,0],[0.855,0.855,0],[0.5,1,0],[0.145,0.855,0],[0,0.5,0]];pointerEvents=1;shape=mxgraph.cisco_safe.compositeIcon;bgIcon=ellipse;resIcon=mxgraph.cisco_safe.capability.dns;labelPosition=right;" vertex="1" parent="wB2CTsfBuIStc93l_LuM-52">
          <mxGeometry x="415" y="10" width="25" height="30" as="geometry" />
        </mxCell>
        <mxCell id="wB2CTsfBuIStc93l_LuM-64" style="edgeStyle=orthogonalEdgeStyle;rounded=0;orthogonalLoop=1;jettySize=auto;html=1;" edge="1" parent="wB2CTsfBuIStc93l_LuM-24" source="wB2CTsfBuIStc93l_LuM-58" target="wB2CTsfBuIStc93l_LuM-26">
          <mxGeometry relative="1" as="geometry" />
        </mxCell>
        <mxCell id="wB2CTsfBuIStc93l_LuM-65" style="edgeStyle=orthogonalEdgeStyle;rounded=0;orthogonalLoop=1;jettySize=auto;html=1;" edge="1" parent="wB2CTsfBuIStc93l_LuM-24" source="wB2CTsfBuIStc93l_LuM-58" target="wB2CTsfBuIStc93l_LuM-27">
          <mxGeometry relative="1" as="geometry" />
        </mxCell>
        <mxCell id="wB2CTsfBuIStc93l_LuM-43" value="Availability Zone 2" style="fillColor=none;strokeColor=#0000FF;dashed=1;verticalAlign=top;fontStyle=0;fontColor=#147EBA;whiteSpace=wrap;html=1;" vertex="1" parent="wB2CTsfBuIStc93l_LuM-24">
          <mxGeometry x="530" y="30" width="230" height="540" as="geometry" />
        </mxCell>
        <mxCell id="wB2CTsfBuIStc93l_LuM-49" value="ACME Insurance Data Center" style="points=[[0,0],[0.25,0],[0.5,0],[0.75,0],[1,0],[1,0.25],[1,0.5],[1,0.75],[1,1],[0.75,1],[0.5,1],[0.25,1],[0,1],[0,0.75],[0,0.5],[0,0.25]];outlineConnect=0;gradientColor=none;html=1;whiteSpace=wrap;fontSize=12;fontStyle=0;container=1;pointerEvents=0;collapsible=0;recursiveResize=0;shape=mxgraph.aws4.group;grIcon=mxgraph.aws4.group_corporate_data_center;strokeColor=#7D8998;fillColor=none;verticalAlign=top;align=left;spacingLeft=30;fontColor=#5A6C86;dashed=0;" vertex="1" parent="1">
          <mxGeometry x="490" y="960" width="370" height="220" as="geometry" />
        </mxCell>
        <mxCell id="wB2CTsfBuIStc93l_LuM-69" style="edgeStyle=orthogonalEdgeStyle;rounded=0;orthogonalLoop=1;jettySize=auto;html=1;entryX=0.5;entryY=1;entryDx=0;entryDy=0;" edge="1" parent="1" source="wB2CTsfBuIStc93l_LuM-50" target="wB2CTsfBuIStc93l_LuM-52">
          <mxGeometry relative="1" as="geometry" />
        </mxCell>
        <mxCell id="wB2CTsfBuIStc93l_LuM-66" style="edgeStyle=orthogonalEdgeStyle;rounded=0;orthogonalLoop=1;jettySize=auto;html=1;" edge="1" parent="1" source="wB2CTsfBuIStc93l_LuM-63" target="wB2CTsfBuIStc93l_LuM-58">
          <mxGeometry relative="1" as="geometry" />
        </mxCell>
        <mxCell id="wB2CTsfBuIStc93l_LuM-63" value="Web client" style="sketch=0;outlineConnect=0;fontColor=#232F3E;gradientColor=none;fillColor=#232F3D;strokeColor=none;dashed=0;verticalLabelPosition=top;verticalAlign=bottom;align=center;html=1;fontSize=12;fontStyle=0;aspect=fixed;pointerEvents=1;shape=mxgraph.aws4.client;labelPosition=center;" vertex="1" parent="1">
          <mxGeometry x="636" y="-80" width="78" height="76" as="geometry" />
        </mxCell>
        <mxCell id="wB2CTsfBuIStc93l_LuM-50" value="VPN&#xa;Connection" style="sketch=0;outlineConnect=0;fontColor=#232F3E;gradientColor=none;strokeColor=#232F3E;fillColor=#ffffff;dashed=0;verticalLabelPosition=middle;verticalAlign=middle;align=left;html=1;fontSize=12;fontStyle=0;aspect=fixed;shape=mxgraph.aws4.resourceIcon;resIcon=mxgraph.aws4.vpn_connection;labelPosition=right;" vertex="1" parent="1">
          <mxGeometry x="645" y="800" width="60" height="60" as="geometry" />
        </mxCell>
      </root>
    </mxGraphModel>
  </diagram>
</mxfile>
